<svg xmlns="http://www.w3.org/2000/svg" xmlns:xlink="http://www.w3.org/1999/xlink" width="801" height="220" xmlns:v="https://vecta.io/nano"><defs><path d="M33.945 64.49v7.401C15.655 70.889 1.001 56.235 0 37.945l7.028.001C8.107 52.23 19.607 63.605 33.945 64.49zm30.518-26.544l7.428-.001c-1.001 18.29-15.656 32.944-33.946 33.946l.001-7.428a28.81 28.81 0 0 0 26.517-26.517zM33.945 0v7.001C19.473 7.894 7.894 19.473 7.001 33.945H0C.992 15.838 15.364 1.295 33.397.034L33.945 0zm4.001 0c18.29 1.001 32.944 15.655 33.945 33.945H64.49C63.605 19.607 52.23 8.107 37.946 7.028L37.945 0z" id="A"/><path d="M21.502 9.551c.427-.426.61-1.095.427-1.643a1.5 1.5 0 0 0-1.343-1.095l-5.432-.791c-.122 0-.183-.061-.244-.183L12.47.913C12.165.365 11.615 0 11.005 0S9.846.365 9.54.913L7.099 5.84c-.061.122-.122.183-.244.183l-5.432.791C.813 6.874.325 7.3.081 7.908-.102 8.517.02 9.125.508 9.551l3.906 3.833c.061.061.122.183.122.304l-.915 5.414c-.127.615.14 1.244.671 1.582.488.365 1.16.426 1.709.122l4.821-2.555c.092-.062.213-.062.305 0l4.821 2.555a1.63 1.63 0 0 0 .732.183c.366 0 .671-.122.976-.304.488-.365.732-.973.671-1.582l-.915-5.414c0-.122 0-.243.122-.304l3.967-3.833h0zm-6.301 3.725l.757 4.418c.05.149-.05.248-.101.248-.05.05-.151.099-.303 0l-3.989-2.085c-.202-.099-.404-.149-.606-.149s-.454.05-.606.149l-3.989 2.085c-.151.05-.252 0-.303 0-.05-.05-.151-.099-.101-.248l.757-4.418c.05-.447-.05-.894-.404-1.191L3.084 8.957c-.101-.099-.101-.248-.05-.248 0-.05.05-.149.202-.199l4.493-.645c.454-.05.808-.348 1.01-.745l2.02-3.971C10.808 3 10.96 3 11.01 3s.151 0 .252.149l2.02 3.971c.202.397.555.645 1.01.745l4.493.645c.151 0 .202.149.202.199s.05.149-.05.248l-3.231 3.128c-.404.348-.555.745-.505 1.191h0z" id="B"/></defs><g fill="none" fill-rule="evenodd"><g transform="matrix(.707107 .707107 -.707107 .707107 351.748949 5.907607)" stroke="#979797" stroke-linecap="square" stroke-width="1.7"><path d="M21.355.84v40.32"/><path d="M40.286 20.394H0"/></g><g fill="#fff"><path d="M565.04 164.825c1.037 0 1.729.875 1.902 1.925v3.325c-.009 1.059-.856 1.916-1.902 1.925-1.047-.01-1.893-.866-1.902-1.925v-3.325c.009-1.059.856-1.916 1.902-1.925zM564.867 102c1.729 0 3.285 1.05 4.15 2.625l6.917 14.175c.173.35.346.525.692.525l15.39 2.275c1.8.127 3.324 1.39 3.804 3.15.519 1.575 0 3.5-1.21 4.725l-11.24 11.025c-.346.175-.346.525-.346.875l2.594 15.575c.173 1.75-.519 3.5-1.902 4.55-.865.525-1.729.875-2.767.875-.692 0-1.383-.175-2.075-.525l-13.66-7.35a.77.77 0 0 0-.865 0l-13.66 7.35c-1.556.875-3.458.7-4.842-.35a4.38 4.38 0 0 1-1.902-4.55l2.594-15.575c0-.35-.173-.7-.346-.875l-11.067-11.025c-1.383-1.225-1.729-2.975-1.21-4.725.692-1.75 2.075-2.975 3.804-3.15l15.39-2.275c.346 0 .519-.175.692-.525l6.917-14.175c.865-1.575 2.421-2.625 4.15-2.625zm.346 3.675c-.173 0-.692 0-.865.525l-6.917 14c-.692 1.4-1.902 2.45-3.458 2.625l-15.39 2.275c-.519.175-.692.525-.692.7-.173 0-.173.525.173.875l11.067 11.025c1.21 1.05 1.556 2.625 1.383 4.2l-2.594 15.575c-.173.525.173.7.346.875.173 0 .519.175 1.037 0l13.66-7.35c.519-.35 1.383-.525 2.075-.525s1.383.175 2.075.525l13.66 7.35c.519.35.865.175 1.037 0 .173 0 .519-.35.346-.875l-2.594-15.575c-.173-1.575.346-2.975 1.729-4.2l11.067-11.025c.346-.35.173-.7.173-.875s-.173-.7-.692-.7l-15.39-2.275c-1.556-.35-2.767-1.225-3.458-2.625l-6.917-14c-.346-.525-.692-.525-.865-.525zm28.558 37.663c.512-.459 1.226-.607 1.875-.388l3.112 1.05c1.037.175 1.556 1.225 1.037 2.625-.173.7-.865 1.225-1.729 1.225-.173 0-.346-.175-.519-.175l-3.112-1.05a1.93 1.93 0 0 1-1.27-1.449 1.95 1.95 0 0 1 .605-1.837zm-59.337-.563c.865-.35 1.902.175 2.248 1.225s-.173 2.1-1.21 2.275l-3.112 1.05c-.173.175-.346.175-.519.175-.692 0-1.556-.35-1.729-1.225a1.91 1.91 0 0 1 .086-1.488c.229-.463.635-.811 1.124-.962zm8.992-38.15c.865-.7 2.075-.525 2.594.35l1.902 2.8c.519.875.346 1.925-.346 2.625-.346.175-.692.35-1.037.35-.692 0-1.21-.175-1.556-.7l-1.902-2.8c-.692-.875-.519-2.1.346-2.625zm40.635.35c.692-.7 1.729-.875 2.594-.35s1.037 1.75.346 2.625l-1.902 2.8c-.346.35-1.037.7-1.556.7-.346 0-.692-.175-1.037-.35-.692-.7-.865-1.75-.346-2.625z"/><g fill-rule="nonzero"><path d="M199.533 143.629c-6.362-7.736-19.832-16.765-34.533-16.765-14.754 0-28.224 9.09-34.533 16.765a2.05 2.05 0 0 0 0 2.607C136.98 154.159 150.481 163 165 163c15.034 0 28.447-9.364 34.533-16.765a2.05 2.05 0 0 0 0-2.607zm-20.548 1.303c0 7.697-6.274 13.958-13.985 13.958s-13.985-6.262-13.985-13.958 6.274-13.958 13.985-13.958 13.985 6.263 13.985 13.958zm-44.925.001c2.547-2.642 8.687-8.343 17.307-12.002-5.41 7.094-5.412 16.903-.003 24-6.554-2.772-12.643-7.153-17.305-11.998zm44.572 12.001c5.41-7.095 5.412-16.903.003-24 6.554 2.772 12.642 7.153 17.305 11.998-2.547 2.642-8.687 8.343-17.307 12.002zM158 144.932c0 3.852 3.14 6.986 7 6.986s7-3.134 7-6.986-3.14-6.986-7-6.986-7 3.134-7 6.986zm9.882 0c0 1.586-1.293 2.877-2.882 2.877s-2.882-1.29-2.882-2.877 1.293-2.877 2.882-2.877 2.882 1.29 2.882 2.877zM165 118.904c1.137 0 2.059-.92 2.059-2.055v-4.795c0-1.135-.922-2.055-2.059-2.055s-2.059.92-2.059 2.055v4.795c0 1.135.922 2.055 2.059 2.055zm12.284 2.749a2.06 2.06 0 0 0 2.808-.767l2.74-4.795c.563-.986.219-2.241-.768-2.803a2.06 2.06 0 0 0-2.808.767l-2.74 4.795c-.563.986-.219 2.241.768 2.803zm-27.377-.767a2.06 2.06 0 0 0 2.808.767 2.05 2.05 0 0 0 .768-2.803l-2.74-4.795a2.06 2.06 0 0 0-2.808-.767 2.05 2.05 0 0 0-.768 2.803l2.74 4.795zm-50.436-18.378a1.78 1.78 0 0 0-1.767-.43l-.153.055-66.43 27.2-.294.15c-.477.3-.781.809-.822 1.35l-.005.148.029.307.088.311a1.77 1.77 0 0 0 .883.962l.157.067 27.994 10.39.147.144 10.822 27.692.145.296a1.78 1.78 0 0 0 1.516.85c.678 0 1.29-.381 1.588-.975l.063-.141 26.436-66.449.094-.307a1.76 1.76 0 0 0-.38-1.501l-.111-.12zm-62.835 28.384l58.401-23.915-23.244 58.42L62.69 142.1l9.18-9.252.219-.263a1.76 1.76 0 0 0-.1-2.122l-.106-.114-.264-.217a1.78 1.78 0 0 0-2.143.113l-.117.108-9.191 9.268-23.53-8.73zm224.677 11.627h-14.114c-.649 0-1.176-.581-1.176-1.296s.527-1.296 1.176-1.296h14.114c.649 0 1.176.581 1.176 1.296s-.527 1.296-1.176 1.296zM259.63 149h-10.334c-.475 0-.861-.581-.861-1.296s.386-1.296.861-1.296h10.334c.475 0 .861.581.861 1.296s-.386 1.296-.861 1.296zm-5.13-25.926c-2.445 0-4.433-2.035-4.433-4.537S252.055 114 254.5 114s4.433 2.035 4.433 4.537-1.988 4.537-4.433 4.537zm0-6.806c-1.221 0-2.217 1.019-2.217 2.269s.995 2.269 2.217 2.269 2.217-1.019 2.217-2.269-.995-2.269-2.217-2.269zm8.313 18.473c-.656 0-1.187-.508-1.187-1.134v-2.269c0-1.876-1.598-3.403-3.562-3.403h-7.125c-1.964 0-3.562 1.527-3.562 3.403v2.269c0 .626-.532 1.134-1.187 1.134s-1.187-.508-1.187-1.134v-2.269c0-3.126 2.665-5.671 5.938-5.671h7.125c3.273 0 5.938 2.545 5.938 5.671v2.269c0 .626-.532 1.134-1.187 1.134zM271.944 102c4.112 0 7.461 3.407 7.461 7.593v28.123c0 .952-.759 1.702-1.713 1.702s-1.713-.75-1.713-1.702v-28.123c0-2.267-1.81-4.113-4.034-4.113h-34.484c-2.224 0-4.034 1.846-4.034 4.113v46.826c0 2.267 1.81 4.113 4.034 4.113h34.034c.846 0 1.317.657 1.317 1.74 0 .523.351.969.987 1.469l.363.271h-36.7c-4.112 0-7.461-3.407-7.461-7.593v-46.826c0-4.186 3.348-7.593 7.461-7.593h34.484z"/><path d="M279.128 136.56c8.033 0 14.568 6.535 14.568 14.568s-6.535 14.568-14.568 14.568-14.568-6.535-14.568-14.568 6.535-14.568 14.568-14.568zm0 3.607c-6.045 0-10.961 4.916-10.961 10.961s4.916 10.961 10.961 10.961 10.961-4.916 10.961-10.961-4.916-10.961-10.961-10.961z"/><path d="M287.162 159.163c-.72.72-.72 1.889 0 2.609l9.688 9.689a1.85 1.85 0 0 0 1.306.539 1.84 1.84 0 0 0 1.303-.539c.72-.72.72-1.889 0-2.609l-9.688-9.689c-.72-.72-1.889-.72-2.609 0zm110.105 8.732a1.37 1.37 0 0 1-1.367 1.37h-25.156a1.37 1.37 0 0 1-1.368-1.37v-2.733h19.026c.363 0 .711-.143.967-.4a1.37 1.37 0 0 0-.967-2.335h-5.863a4.1 4.1 0 0 0 .236-1.363V158.6h8.475c.363.001.711-.143.968-.399a1.36 1.36 0 0 0 .4-.968 1.37 1.37 0 0 0-1.368-1.37h-8.475v-3.941l.546.016a9.14 9.14 0 0 0 9.126-9.122 9.14 9.14 0 0 0-9.126-9.124l-.546.016v-6.55H395.9c.362 0 .71.143.966.399s.4.603.4.966v39.372h0zm-38.008 1.37h-25.156a1.37 1.37 0 0 1-1.367-1.37v-39.372c0-.362.144-.71.4-.966a1.36 1.36 0 0 1 .966-.399h13.125v6.55l-.546-.016c-5.036.007-9.116 4.087-9.123 9.122a9.14 9.14 0 0 0 9.123 9.124l.546-.016v3.941h-8.477a1.37 1.37 0 0 0-1.367 1.37c0 .363.143.71.4.967s.604.4.967.4h8.477v2.464a4.19 4.19 0 0 0 .233 1.363h-5.859a1.37 1.37 0 0 0-1.368 1.368 1.37 1.37 0 0 0 1.368 1.368h19.026v2.733a1.37 1.37 0 0 1-1.369 1.37zm-12.031-20.087l-.546.026a6.41 6.41 0 0 1-6.393-6.389c.008-3.527 2.866-6.384 6.393-6.391l.546.026v12.727h0zm35.548-12.727l.546-.026a6.41 6.41 0 0 1 6.393 6.389c-.008 3.527-2.866 6.384-6.393 6.391a7.21 7.21 0 0 1-.546-.026v-12.727h0zm0-12.029v-4.919c-.004-2.264-1.838-4.099-4.102-4.105h-8.216c-.364-.001-.712.143-.969.4a1.36 1.36 0 0 0-.399.97 1.37 1.37 0 0 0 1.368 1.367h8.216a1.37 1.37 0 0 1 .968.4 1.36 1.36 0 0 1 .399.968v41.559c0 .362-.145.709-.401.965s-.604.399-.966.399H351.33a1.37 1.37 0 0 1-.966-.399 1.36 1.36 0 0 1-.401-.965v-41.559c-.001-.363.143-.711.399-.968a1.36 1.36 0 0 1 .968-.4h8.19a1.37 1.37 0 0 0 1.367-1.367c0-.752-.616-1.37-1.367-1.37h-8.19c-2.264.006-4.098 1.841-4.102 4.105v4.919h-13.125c-2.263 0-4.102 1.839-4.102 4.1v39.372c.004 2.264 1.838 4.099 4.102 4.105h25.156c2.264-.006 4.098-1.841 4.102-4.105v-2.733h3.281v2.733c.004 2.264 1.838 4.099 4.102 4.105H395.9a4.11 4.11 0 0 0 4.1-4.105v-39.372c0-2.261-1.837-4.1-4.1-4.1h-13.125zm-8.478 25.43c0-.363-.143-.71-.4-.967s-.604-.4-.967-.4h-15.86c-.755 0-1.367.612-1.367 1.367s.612 1.367 1.367 1.367h15.86c.363 0 .711-.143.967-.4a1.37 1.37 0 0 0 .4-.967m-14.373 5.194a1.37 1.37 0 0 0-1.368 1.368 1.37 1.37 0 0 0 1.368 1.368h10.155a1.37 1.37 0 0 0 1.368-1.368 1.37 1.37 0 0 0-1.368-1.368h-10.155zM364.633 132c-2.482 0-4.5-2.018-4.5-4.5s2.018-4.5 4.5-4.5 4.5 2.018 4.5 4.5-2.018 4.5-4.5 4.5zm0-6.75c-1.24 0-2.25 1.01-2.25 2.25s1.01 2.25 2.25 2.25 2.25-1.01 2.25-2.25-1.01-2.25-2.25-2.25zm8.313 17.75c-.656 0-1.187-.504-1.187-1.125v-2.25c0-1.861-1.598-3.375-3.562-3.375h-7.125c-1.964 0-3.562 1.514-3.562 3.375v2.25c0 .621-.532 1.125-1.187 1.125s-1.187-.504-1.187-1.125v-2.25c0-3.101 2.665-5.625 5.938-5.625h7.125c3.273 0 5.938 2.524 5.938 5.625v2.25c0 .621-.532 1.125-1.187 1.125zm-7.96-34.228c.363 0 .711-.143.967-.4a1.37 1.37 0 0 0 .4-.967v-4.039c0-.755-.612-1.367-1.367-1.367s-1.367.612-1.367 1.367v4.039c0 .363.143.71.4.967s.604.4.967.4m-10.085 2.95c.258.253.606.395.968.395a1.37 1.37 0 0 0 .966-2.331l-2.368-2.369c-.346-.345-.849-.48-1.321-.353s-.84.496-.966.968.009.975.355 1.32l2.366 2.369h0zm19.236.394c.361.001.708-.141.964-.395l2.368-2.369a1.37 1.37 0 0 0 0-1.935c-.256-.257-.604-.401-.967-.401s-.711.144-.967.401l-2.369 2.369c-.532.535-.532 1.4 0 1.935a1.37 1.37 0 0 0 .971.395M365 115.399a1.39 1.39 0 0 0-.968.402 1.38 1.38 0 0 0-.399.968 1.39 1.39 0 0 0 .399.966c.258.255.605.399.968.401s.71-.145.968-.401a1.39 1.39 0 0 0 .399-.966 1.38 1.38 0 0 0-1.367-1.37m125.418-12.784c-.665-.487-1.568-.485-2.218-.015l-.127.1-15.79 15.757-.177.073H436.32l-.289.005c-1.511.062-2.944.689-4.015 1.758s-1.699 2.501-1.761 4.007l-.005.283v28.709l.005.289a6.01 6.01 0 0 0 1.761 4.006 6.04 6.04 0 0 0 4.016 1.758l.284.005h2.355v10.749l.002.101c.037.75.402 1.329 1.024 1.399l.128.007.112.026c.482.241 1.331.077 1.731-.228l.084-.073 11.579-11.905.179-.076h23.856l.289-.005c1.511-.062 2.944-.689 4.015-1.758a6.01 6.01 0 0 0 1.761-4.007l.005-.283v-23.111l.073-.177 15.771-15.737.104-.129c.488-.663.485-1.564.012-2.215l-.101-.127-8.748-9.082-.13-.104zm-54.102 19.267h32.535l-6.749 6.735a1.05 1.05 0 0 0-.273.49l-.018.123-5.678 13.811-11.369-.001-.151.016c-.939.136-1.662.906-1.733 1.818a2.03 2.03 0 0 0 1.702 1.852l.154.018 13.282-.001 14.757-6.3.081-.008c.024-.007.043-.018.081-.053l.045-.043c.116-.116.21-.188.328-.222l.089-.019 6.677-6.662v19.511l-.043.14-.157.233c-.812 1.172-1.584 1.832-2.352 1.96l-.154.018h-24.551l-.157.006c-.372.032-.585.148-.927.47l-.135.131-.015.017-9.202 9.55.001-8.296-.016-.15a2.03 2.03 0 0 0-1.678-1.709l-.163-.019-4.238-.001-.168-.018a2.53 2.53 0 0 1-2.142-2.161l-.018-.17.001-28.74.019-.168a2.53 2.53 0 0 1 2.165-2.138l.17-.018zm24.086 19.634l3.55-8.266 4.733 4.724-8.283 3.543zm5.386-11.681l17.898-17.861 6.319 6.306-17.898 17.861-6.319-6.306zm20.351-20.309l3.161-3.154 6.319 6.306-3.161 3.154-6.319-6.306z"/></g></g><mask id="C" fill="#fff"><use xlink:href="#A"/></mask><use fill="#d9d9d9" xlink:href="#A"/><path fill="#8F971E" mask="url(#C)" d="M35.945-.055h36v36h-36z"/><g transform="translate(79)"><mask id="D" fill="#fff"><use xlink:href="#B" href="#A"/></mask><use fill="#d9d9d9" xlink:href="#B" href="#A"/><path fill="#8F971E" mask="url(#D)" d="M35.945-.055h36v72h-36z"/></g><g transform="translate(158)"><mask id="E" fill="#fff"><use xlink:href="#C" href="#A"/></mask><use fill="#d9d9d9" xlink:href="#C" href="#A"/><path fill="#8F971E" mask="url(#E)" d="M35.945-.055h36v72h-36L-1.5 72V36l37.445.5z"/></g><use fill="#59baa8" xlink:href="#D" transform="translate(237)" href="#A"/><use fill="#d9d9d9" xlink:href="#E" transform="translate(316)" href="#A"/><g fill-rule="nonzero"><path d="M8.355 202.751h.292a7.75 7.75 0 0 1 7.603 7.749c0 4.28-3.471 7.75-7.75 7.75a7.75 7.75 0 0 1-.392-15.49l.247-.008zm.281 1.382h-.269a6.37 6.37 0 0 0-6.234 6.366 6.37 6.37 0 0 0 6.368 6.368 6.37 6.37 0 0 0 .365-12.725l-.23-.009zm2.571 3.689a.65.65 0 0 1 .921 0 .65.65 0 0 1 .045.872l-.045.049-4.348 4.348-.006.011c-.017.028-.032.049-.057.074a.64.64 0 0 1-.466.189c-.177.004-.347-.062-.476-.189-.017-.017-.029-.032-.04-.049l-.018-.03-2.147-2.149a.65.65 0 0 1-.044-.872l.045-.049a.65.65 0 0 1 .87-.045l.049.045 1.757 1.756 3.961-3.962z" fill="#59baa8"/><path d="M25.355 202.751h.292a7.75 7.75 0 0 1 7.603 7.749c0 4.28-3.471 7.75-7.75 7.75a7.75 7.75 0 0 1-.392-15.49l.247-.008zm.281 1.382h-.269a6.37 6.37 0 0 0-6.234 6.367 6.37 6.37 0 0 0 6.368 6.367 6.37 6.37 0 0 0 .365-12.725l-.23-.009zm-.136 2.37c.388 0 .712.285.767.657l.007.079.001.361v3.864c0 .429-.347.776-.776.776a.78.78 0 0 1-.774-.713l-.003-.064.002-4.231.006-.06c.049-.359.342-.638.705-.668l.065-.003zm-.065 8.26c-.475-.034-.85-.429-.85-.913 0-.505.41-.915.915-.915s.915.41.915.915c0 .484-.375.88-.85.913l-.065.002-.065-.002z" fill="#fcc63b"/></g><g transform="translate(633 102)"><path d="M25.492 26.459c-3.726 0-6.769 3.045-6.769 6.75v5.267H6.848C3.091 38.477 0 41.515 0 45.251V63.19C0 66.932 3.091 70 6.848 70h49.319C59.925 70 63 66.932 63 63.19V51.876c0-3.736-3.075-6.798-6.833-6.798H44.119l-.095-11.886c-.048-3.688-3.076-6.732-6.785-6.732H25.492zm0 3.789h11.747c1.681 0 2.948 1.287 2.98 2.979l.27 32.989H22.511V33.21c0-1.674 1.3-2.961 2.981-2.961h0zM6.848 42.26h11.874v23.957H6.848c-1.712 0-3.044-1.323-3.044-3.027V45.251c0-1.686 1.331-2.991 3.044-2.991zm37.302 6.601h12.017c1.712 0 3.044 1.329 3.044 3.015V63.19c0 1.704-1.331 3.027-3.044 3.027H44.293l-.143-17.355z" fill="#fff" fill-rule="nonzero"/><use fill="#fff" xlink:href="#B" transform="translate(20)"/></g><g fill="#fff" fill-rule="nonzero"><path d="M765 102c19.33 0 35 15.67 35 35s-15.67 35-35 35-35-15.67-35-35 15.67-35 35-35zm0 3.8c-17.231 0-31.2 13.969-31.2 31.2s13.969 31.2 31.2 31.2 31.2-13.969 31.2-31.2-13.969-31.2-31.2-31.2z"/><g transform="matrix(.707107 .707107 -.707107 .707107 765.654979 109)"><path d="M20.7 0v42.02H19V0z"/><path d="M42.02 19v1.7H0V19z"/></g></g></g></svg>