<svg width="54" height="40" viewBox="0 0 54 40" fill="none" xmlns="http://www.w3.org/2000/svg">
<rect width="54" height="40" rx="9" fill="#8F971E"/>
<path d="M7.216 24.408C7.19467 24.4933 7.184 24.664 7.184 24.92C7.184 25.176 7.16267 25.4 7.12 25.592C7.07733 25.784 7.07733 26.0187 7.12 26.296C7.20533 26.68 7.38667 27.1493 7.664 27.704C7.664 27.768 7.824 27.9387 8.144 28.216C8.22933 28.2373 8.31467 28.2587 8.4 28.28C8.50667 28.3013 8.592 28.3333 8.656 28.376C8.72 28.3973 8.86933 28.3867 9.104 28.344C9.33867 28.28 9.488 28.2267 9.552 28.184C9.63733 28.12 9.79733 27.992 10.032 27.8C10.2667 27.5013 10.5227 27.2987 10.8 27.192C11.2053 26.808 11.5893 26.4773 11.952 26.2C12.2933 26.136 12.5173 26.1147 12.624 26.136C12.7307 26.1573 12.848 26.2427 12.976 26.392C13.2747 26.7333 13.36 27.1707 13.232 27.704C13.0613 28.3013 12.7413 28.8667 12.272 29.4C12.1867 29.5493 12.0267 29.688 11.792 29.816C11.7493 29.8587 11.6853 29.9547 11.6 30.104L10.992 30.712C10.864 30.712 10.7787 30.776 10.736 30.904C10.6933 31.032 10.416 31.192 9.904 31.384C9.264 31.384 8.69867 31.32 8.208 31.192C7.14133 30.9573 6.384 30.6693 5.936 30.328L5.328 29.944C5.28533 29.8587 5.08267 29.7413 4.72 29.592L4.304 29.08L3.824 28.568L3.504 27.992C3.44 27.9067 3.39733 27.7467 3.376 27.512C3.35467 27.256 3.32267 27.0427 3.28 26.872C3.30133 26.808 3.312 26.5733 3.312 26.168C3.35467 25.976 3.376 25.7413 3.376 25.464C3.41867 25.4 3.41867 25.176 3.376 24.792L3.408 24.504V24.056C3.408 23.7147 3.45067 23.352 3.536 22.968C3.62133 22.584 3.70667 22.1787 3.792 21.752C3.792 21.4747 3.824 21.2293 3.888 21.016C3.824 20.824 3.83467 20.3547 3.92 19.608V19.416C3.92 19.2027 3.93067 19.032 3.952 18.904V18.68L4.016 16.728C4.016 16.664 4.06933 16.3867 4.176 15.896C4.176 15.64 4.272 15.224 4.464 14.648C4.592 14.4347 4.656 14.2533 4.656 14.104C4.656 13.9973 4.688 13.784 4.752 13.464C4.85867 13.336 4.93333 13.048 4.976 12.6C4.99733 12.6 5.05067 12.3653 5.136 11.896C5.136 11.64 5.25333 11.352 5.488 11.032C5.53067 10.904 5.72267 10.7547 6.064 10.584H6.096C6.18133 10.5413 6.50133 10.488 7.056 10.424C7.312 10.424 7.64267 10.5093 8.048 10.68C8.15467 10.68 8.45333 10.84 8.944 11.16C9.2 11.4587 9.12533 12.1413 8.72 13.208C8.72 13.4 8.63467 13.688 8.464 14.072C8.464 14.264 8.432 14.488 8.368 14.744C8.368 14.936 8.22933 15.704 7.952 17.048C7.696 18.3707 7.45067 20.824 7.216 24.408ZM21.4978 20.76C21.5831 20.44 21.5724 20.0347 21.4658 19.544C21.3164 19.416 21.1138 19.352 20.8578 19.352C20.5378 19.352 20.2498 19.6507 19.9938 20.248C19.6524 20.76 19.3964 21.3253 19.2258 21.944H19.1938C18.9591 22.84 18.8418 23.32 18.8418 23.384C19.1831 23.4693 19.4604 23.512 19.6738 23.512C19.8871 23.4907 20.1324 23.3733 20.4098 23.16C20.9004 22.6907 21.2631 21.8907 21.4978 20.76ZM21.4018 25.368L20.2178 25.464C19.5564 25.464 19.0338 25.4 18.6498 25.272L18.7458 25.88C18.8098 27.6507 19.3004 28.8133 20.2178 29.368C20.4738 29.4747 20.6871 29.528 20.8578 29.528C21.0284 29.528 21.2524 29.4427 21.5298 29.272C21.6151 29.1867 21.6898 29.0693 21.7538 28.92C21.7751 28.728 21.8818 28.6427 22.0738 28.664C22.9484 27.5547 23.6098 27.1173 24.0578 27.352C24.5058 27.6507 24.7298 27.8853 24.7298 28.056C24.7298 28.1413 24.6764 28.2373 24.5698 28.344V28.536C24.5698 28.7493 24.4311 29.1333 24.1538 29.688C23.8978 30.2427 23.6204 30.712 23.3218 31.096C23.1724 31.416 22.9804 31.64 22.7458 31.768C22.0631 32.1947 21.3378 32.3653 20.5698 32.28C20.3991 32.2587 20.2818 32.216 20.2178 32.152C20.0471 32.1093 19.9191 32.0987 19.8338 32.12L19.5778 32.088C19.3858 32.088 19.2258 32.0453 19.0978 31.96C18.8844 31.832 18.7351 31.768 18.6498 31.768C18.0951 31.5547 17.7538 31.3947 17.6258 31.288C17.5191 31.1813 17.4231 31.1067 17.3378 31.064C17.2524 31.0213 17.0498 30.7973 16.7298 30.392C16.4524 30.1573 16.2924 30.008 16.2498 29.944C16.1218 29.752 16.0044 29.6133 15.8978 29.528C15.8124 29.4427 15.7591 29.2507 15.7378 28.952C15.6524 28.8453 15.6098 28.7067 15.6098 28.536L15.4818 28.28C15.4818 28.1307 15.4178 28.0133 15.2898 27.928C15.1618 27.8 15.0978 27.64 15.0978 27.448V27.192C15.0124 27.1493 14.9911 27.0213 15.0338 26.808V25.976L15.0018 25.688V25.464C14.9804 25.3787 15.0018 25.1973 15.0658 24.92L15.0338 24.632C15.0551 24.6107 15.0871 24.44 15.1298 24.12C15.2151 23.672 15.3111 23.3947 15.4178 23.288V23C15.4391 22.936 15.4498 22.8507 15.4498 22.744C15.4498 22.6373 15.4711 22.52 15.5138 22.392C15.5778 22.264 15.7484 21.784 16.0258 20.952L16.5378 19.832C16.6871 19.512 16.9218 19.16 17.2418 18.776C17.2631 18.6693 17.3484 18.4773 17.4978 18.2L17.9138 17.816C18.0418 17.624 18.2338 17.4853 18.4898 17.4C18.7884 17.2507 19.0124 17.176 19.1618 17.176L20.0578 17.048C20.1644 17.0693 20.2391 17.08 20.2818 17.08H20.6978C21.1671 17.1227 21.5511 17.2187 21.8498 17.368C22.4898 17.56 22.9591 17.8053 23.2578 18.104C23.9191 18.8507 24.2498 19.5653 24.2498 20.248C24.2498 20.9307 24.1431 21.5173 23.9298 22.008C23.3964 23.224 23.0124 23.992 22.7778 24.312C22.3938 25.016 21.9351 25.368 21.4018 25.368ZM34.71 29.816L34.518 29.272L34.166 27.128C34.0593 26.7227 34.006 26.36 34.006 26.04L34.134 24.632C34.134 24.3973 34.1447 24.2693 34.166 24.248C33.91 24.248 33.526 24.5573 33.014 25.176C32.9713 25.24 32.9073 25.3467 32.822 25.496C31.926 26.9253 31.3927 28.6427 31.222 30.648C31.0513 31.0107 30.8273 31.192 30.55 31.192C29.974 31.064 29.654 31 29.59 31L29.366 31.032H28.95C28.4593 30.9893 28.1393 30.7973 27.99 30.456C27.9047 30.3493 27.862 30.072 27.862 29.624V29.176L27.766 27.416V24.792C27.766 24.4933 27.7447 24.12 27.702 23.672C27.6593 23.1813 27.6487 22.4133 27.67 21.368C27.6913 20.3013 27.6807 19.736 27.638 19.672C27.5953 19.5867 27.574 19.48 27.574 19.352C27.574 19.224 27.606 19.096 27.67 18.968C27.734 18.84 28.022 18.7013 28.534 18.552C28.8113 18.3813 29.046 18.296 29.238 18.296C29.5367 18.36 29.9207 18.488 30.39 18.68C30.71 18.744 30.87 19.0533 30.87 19.608C30.9127 20.5253 30.9127 21.1867 30.87 21.592C30.8487 21.9973 30.8593 22.8187 30.902 24.056C32.4807 21.0267 33.8887 19.2027 35.126 18.584C35.2327 18.4773 35.3927 18.424 35.606 18.424C35.8193 18.424 36.0647 18.5307 36.342 18.744C36.6193 18.9573 36.8113 19.096 36.918 19.16C37.0247 19.224 37.142 19.3307 37.27 19.48C37.4193 19.6293 37.5367 19.7253 37.622 19.768C37.878 20.1947 37.9313 21.1973 37.782 22.776C37.7607 23.0107 37.7393 23.224 37.718 23.416C37.6967 23.5867 37.686 23.9707 37.686 24.568C37.686 25.1653 37.6967 25.5813 37.718 25.816C37.782 26.5627 37.814 27 37.814 27.128L37.974 28.344C38.1873 28.8347 38.294 29.2187 38.294 29.496C38.3153 29.752 38.5073 30.168 38.87 30.744C39.0193 31.064 38.9553 31.32 38.678 31.512C38.2513 31.7253 38.0167 31.8107 37.974 31.768C37.9527 31.7467 37.8353 31.768 37.622 31.832C37.4087 31.9173 37.0247 31.9387 36.47 31.896C36.1927 31.832 35.9153 31.6613 35.638 31.384L35.158 30.904C34.9873 30.648 34.87 30.3707 34.806 30.072C34.6993 29.9653 34.6673 29.88 34.71 29.816ZM47.2328 11.768C47.1901 12.3013 47.1688 12.696 47.1688 12.952C47.1688 13.1867 47.1581 13.4 47.1368 13.592V14.424L47.1048 14.648V15.32C47.1048 15.512 47.0941 15.704 47.0728 15.896L48.1927 15.672C48.2781 15.672 48.5874 15.6187 49.1208 15.512C49.6541 15.4053 50.1341 15.3627 50.5608 15.384C51.0088 15.384 51.3074 15.4693 51.4568 15.64C51.6274 15.8107 51.7128 16.056 51.7128 16.376C51.7554 16.632 51.6808 16.8773 51.4888 17.112L51.3608 17.304C51.1901 17.5813 50.9448 17.7627 50.6248 17.848L49.5048 18.008L48.0648 18.36L47.2008 18.68C47.2221 19.2133 47.2541 19.8 47.2968 20.44C47.3608 21.08 47.3928 21.528 47.3928 21.784L47.4888 22.968C47.7661 24.8453 48.1288 26.7653 48.5768 28.728C48.7048 28.92 48.8434 29.3573 48.9928 30.04L49.2488 30.712C49.3341 31.4373 48.8861 31.8 47.9048 31.8C47.7341 31.8 47.3074 31.7573 46.6248 31.672C46.4328 31.6507 46.1554 31.4587 45.7928 31.096C45.7928 31.0533 45.6754 30.9147 45.4408 30.68L44.8328 29.208C44.7901 29.144 44.7368 28.9413 44.6727 28.6C44.4381 28.3653 44.2461 27.832 44.0968 27C44.0968 26.9573 44.0754 26.8507 44.0328 26.68V26.232C43.8834 26.0827 43.7768 25.6667 43.7128 24.984C43.6488 24.3013 43.5741 23.6613 43.4888 23.064C43.4888 22.232 43.4248 21.432 43.2968 20.664L43.2328 19.96V19.672C43.2541 19.4587 43.2541 19.352 43.2328 19.352H42.8488C42.5288 19.3947 42.2621 19.3947 42.0488 19.352C41.1101 19.352 40.4594 19.0853 40.0968 18.552C39.8407 17.976 39.8301 17.6027 40.0648 17.432C40.2994 17.2613 40.8754 17.0907 41.7928 16.92C42.1981 16.92 42.7208 16.7813 43.3608 16.504C43.3608 15.9707 43.3928 15.672 43.4568 15.608C43.5208 15.1173 43.5848 14.808 43.6488 14.68C43.7341 14.5307 43.7874 14.3813 43.8088 14.232C43.8301 13.72 44.0114 12.9627 44.3528 11.96C44.4808 11.4693 44.5981 11.1387 44.7048 10.968C44.9821 10.5627 45.5581 10.4347 46.4328 10.584C46.7954 10.648 47.0621 10.7867 47.2328 11C47.2968 10.9787 47.2968 11.2347 47.2328 11.768Z" fill="#FBFAF8"/>
</svg>
